<svg xmlns="http://www.w3.org/2000/svg" viewBox="0 0 32 32">
    <path d="M11.349 27.693v0c0.367 0.393 0.849 0.596 1.44 0.622h7.917c0.464-0.026 0.815-0.167 1.047-0.424l4.643-4.547c0.107-0.099 0.203-0.206 0.289-0.318 0.453-0.589 0.432-1.018 0.432-1.729v-0.24h1.268v2.651c0 0.565 0.464 1.029 1.029 1.029h1.557c0.565 0 1.029-0.464 1.029-1.029v-8.984c0-0.565-0.464-1.029-1.029-1.029h-1.557c-0.565 0-1.029 0.464-1.029 1.029v2.651h-1.268v-6.117c0-0.357 0.034-0.536-0.174-0.854-0.208-0.323-0.549-0.495-0.997-0.544h-12.951c-0.565-0.023-1.049 0.089-1.414 0.406l-3.143 3.341h-2.224c-0.732 0-1.331 0.599-1.331 1.331v2.438h-1.268v-2.651c0-0.565-0.464-1.029-1.029-1.029h-1.557c-0.565 0-1.029 0.464-1.029 1.029v8.984c0 0.565 0.464 1.029 1.029 1.029h1.557c0.565 0 1.029-0.464 1.029-1.029v-2.651h1.268v2.266c0 0.732 0.599 1.331 1.331 1.331h2.094l3.042 3.039zM16.591 19.771l-3.292-0.31 2.729-5.979h3.732l-2.117 3.43 3.807 0.422-6.99 8.391 2.13-5.953zM13.536 3.682h8.984c0.565 0 1.029 0.464 1.029 1.029v1.557c0 0.565-0.464 1.029-1.029 1.029h-2.651v1.31h-3.682v-1.31h-2.651c-0.565 0-1.029-0.464-1.029-1.029v-1.557c0-0.565 0.464-1.029 1.029-1.029v0z"></path>
</svg>
