<svg width="48" height="48" viewBox="0 0 48 48" fill="none" xmlns="http://www.w3.org/2000/svg">
<path d="M43.5 11.9203C42.0656 12.5391 40.5047 12.9844 38.8969 13.1578C40.5662 12.1661 41.8162 10.5994 42.4125 8.75157C40.8461 9.68339 39.1301 10.3368 37.3406 10.6828C36.5927 9.88325 35.6881 9.24628 34.6833 8.8116C33.6784 8.37692 32.5948 8.15384 31.5 8.15625C27.0703 8.15625 23.5078 11.7469 23.5078 16.1531C23.5078 16.7719 23.5828 17.3906 23.7047 17.9859C17.0719 17.6391 11.1563 14.4703 7.22344 9.61875C6.50684 10.8427 6.13132 12.2364 6.13594 13.6547C6.13594 16.4297 7.54688 18.8766 9.69844 20.3156C8.43049 20.2657 7.19223 19.9172 6.08438 19.2984V19.3969C6.08438 23.2828 8.83125 26.5031 12.4922 27.2438C11.8048 27.4223 11.0977 27.5136 10.3875 27.5156C9.86719 27.5156 9.375 27.4641 8.87813 27.3938C9.89063 30.5625 12.8391 32.8641 16.35 32.9391C13.6031 35.0906 10.1625 36.3563 6.42657 36.3563C5.75625 36.3563 5.1375 36.3328 4.49532 36.2578C8.03907 38.5313 12.2438 39.8438 16.7719 39.8438C31.4719 39.8438 39.5156 27.6656 39.5156 17.0953C39.5156 16.7484 39.5156 16.4016 39.4922 16.0547C41.0484 14.9156 42.4125 13.5047 43.5 11.9203Z" fill="white"/>
</svg>
