<svg width="48" height="48" viewBox="0 0 48 48" fill="none" xmlns="http://www.w3.org/2000/svg">
<path d="M11.1767 30.7732C10.67 30.2042 10.3715 29.4788 10.3304 28.7165V19.2099C10.3714 18.4474 10.6699 17.7219 11.1767 17.153L11.846 16.4803C12.0705 16.2543 12.1965 15.948 12.1965 15.6287C12.1965 15.3094 12.0705 15.0031 11.846 14.7771L4.7465 7.64051C4.52137 7.41516 4.21659 7.28864 3.89884 7.28864C3.58109 7.28864 3.2763 7.41516 3.05118 7.64051L0.348746 10.3567C0.125337 10.5833 0 10.8893 0 11.2083C0 11.5273 0.125337 11.8334 0.348746 12.06L5.4158 17.1528C5.92347 17.7212 6.22242 18.447 6.26301 19.2097V28.7162C6.22254 29.4786 5.92354 30.2038 5.4158 30.7716L0.348746 35.8664C0.125337 36.0931 0 36.3992 0 36.718C0 37.037 0.125337 37.3431 0.348746 37.5698L3.05118 40.2858C3.27633 40.5111 3.58112 40.6377 3.89884 40.6377C4.21656 40.6377 4.52135 40.5111 4.7465 40.2858L11.846 33.1488C12.0704 32.9226 12.1965 32.6165 12.1965 32.2972C12.1965 31.9778 12.0704 31.6716 11.846 31.4457L11.1767 30.7732Z" fill="#068466"/>
<path d="M30.6875 36.766C30.1217 37.2752 29.4001 37.5756 28.6416 37.6177H19.1858C18.4268 37.5756 17.7046 37.2754 17.1381 36.766L16.4703 36.0915C16.2444 35.8669 15.9395 35.741 15.6219 35.741C15.3042 35.741 14.9993 35.8669 14.7734 36.0915L7.67482 43.2281C7.4507 43.4547 7.32489 43.7613 7.32489 44.0808C7.32489 44.4002 7.4507 44.7068 7.67482 44.9332L10.3772 47.6495C10.6029 47.8741 10.9076 48 11.2251 48C11.5427 48 11.8474 47.8741 12.073 47.6495L17.139 42.554C17.7054 42.0451 18.4273 41.7448 19.186 41.7027H28.6445C29.403 41.7446 30.1246 42.0448 30.6905 42.554L35.7586 47.6495C35.9842 47.8741 36.2887 48 36.6062 48C36.9235 48 37.2282 47.8741 37.4535 47.6495L40.1559 44.9332C40.3802 44.7068 40.5059 44.4002 40.5059 44.0808C40.5059 43.7613 40.3802 43.4547 40.1559 43.2281L33.0522 36.091C32.8268 35.8664 32.5224 35.7405 32.2051 35.7405C31.8878 35.7405 31.5831 35.8664 31.3577 36.091L30.6875 36.766Z" fill="#068466"/>
<path d="M36.8203 17.2264C37.3282 17.7958 37.6277 18.5224 37.6689 19.2861V28.7891C37.6275 29.5524 37.328 30.2785 36.8203 30.8472L36.1507 31.5215C35.927 31.7479 35.8015 32.054 35.8015 32.3733C35.8015 32.6923 35.927 32.9984 36.1507 33.2248L43.2523 40.3605C43.4774 40.5858 43.7823 40.7121 44.0998 40.7121C44.4176 40.7121 44.7222 40.5858 44.9474 40.3605L47.6498 37.6429C47.874 37.4167 48 37.1103 48 36.7911C48 36.4718 47.874 36.1655 47.6498 35.9393L42.5839 30.8463C42.0759 30.2776 41.7762 29.5515 41.7347 28.7882L41.7361 19.2852C41.7769 18.5216 42.0759 17.7949 42.5839 17.2254L47.6498 12.1326C47.874 11.9068 48 11.6009 48 11.2819C48 10.9629 47.874 10.6569 47.6498 10.4311L44.9474 7.71336C44.836 7.60149 44.704 7.51274 44.5586 7.45219C44.4131 7.39165 44.2573 7.36047 44.0998 7.36047C43.9425 7.36047 43.7866 7.39165 43.6412 7.45219C43.4956 7.51274 43.3636 7.60149 43.2523 7.71336L36.1507 14.8488C35.927 15.0752 35.8015 15.3814 35.8015 15.7005C35.8015 16.0197 35.927 16.3259 36.1507 16.5523L36.8203 17.2264Z" fill="#068466"/>
<path d="M17.3092 11.2338C17.8749 10.7239 18.5969 10.4234 19.3557 10.382H28.8122C29.5707 10.4241 30.2923 10.7245 30.8584 11.2338L31.5293 11.9078C31.6404 12.0197 31.7724 12.1084 31.9178 12.169C32.0631 12.2295 32.2189 12.2606 32.3761 12.2606C32.5334 12.2606 32.6894 12.2295 32.8345 12.169C32.9799 12.1084 33.1119 12.0197 33.2232 11.9078L40.3236 4.77084C40.5476 4.54426 40.6734 4.23777 40.6734 3.91829C40.6734 3.59885 40.5476 3.29235 40.3236 3.06575L37.6212 0.352741C37.3963 0.126874 37.0914 0 36.7734 0C36.4555 0 36.1506 0.126874 35.9257 0.352741L30.8586 5.4456C30.2925 5.95488 29.571 6.25528 28.8124 6.29733H19.3557C18.5969 6.25601 17.8749 5.95551 17.3092 5.4456L12.2422 0.352741C12.0165 0.128249 11.7119 0.00232096 11.3944 0.00232096C11.0769 0.00232096 10.7723 0.128249 10.5466 0.352741L7.8442 3.06892C7.62015 3.29547 7.49438 3.60192 7.49438 3.92135C7.49438 4.24078 7.62015 4.54723 7.8442 4.77378L14.943 11.9076C15.1679 12.1335 15.4729 12.2604 15.7908 12.2604C16.1087 12.2604 16.4137 12.1335 16.6386 11.9076L17.3092 11.2338Z" fill="#068466"/>
</svg>
