<svg width="48" height="48" viewBox="0 0 48 48" fill="none" xmlns="http://www.w3.org/2000/svg">
<path d="M13.88 10C13.8795 11.0609 13.4575 12.0781 12.707 12.8278C11.9565 13.5776 10.9389 13.9985 9.87801 13.998C8.81714 13.9975 7.79993 13.5755 7.05016 12.825C6.30039 12.0745 5.87947 11.0569 5.88001 9.996C5.88054 8.93514 6.30247 7.91793 7.05299 7.16816C7.80351 6.41839 8.82114 5.99747 9.88201 5.998C10.9429 5.99853 11.9601 6.42047 12.7098 7.17099C13.4596 7.92151 13.8805 8.93914 13.88 10ZM14 16.96H6.00001V42H14V16.96ZM26.64 16.96H18.68V42H26.56V28.86C26.56 21.54 36.1 20.86 36.1 28.86V42H44V26.14C44 13.8 29.88 14.26 26.56 20.32L26.64 16.96Z" fill="white"/>
</svg>
